<?xml version="1.0" encoding="utf-8"?>
<!-- Generator: Adobe Illustrator 27.0.0, SVG Export Plug-In . SVG Version: 6.00 Build 0)  -->
<svg version="1.1" id="Layer_1" xmlns="http://www.w3.org/2000/svg" xmlns:xlink="http://www.w3.org/1999/xlink" x="0px" y="0px"
	 viewBox="0 0 1042 381" style="enable-background:new 0 0 1042 381;" xml:space="preserve">
<style type="text/css">
	.st0{fill:#6E6E6D;}
	.st1{fill:#FFFFFF;}
	.st2{fill:url(#SVGID_1_);}
	.st3{fill:url(#SVGID_00000117667635330212550220000016532623521208577962_);}
	.st4{fill:url(#SVGID_00000126324464177221443910000013454737982490173103_);}
	.st5{fill:url(#SVGID_00000046309280062271252810000017732539365894846122_);}
	.st6{fill:url(#SVGID_00000000180681913583428650000004200207444820021417_);}
	.st7{fill:url(#SVGID_00000095299944659175341830000018020960454476465041_);}
	.st8{fill:url(#SVGID_00000163044867076395488770000006603047990658117026_);}
	.st9{fill:url(#SVGID_00000095333901037271462020000004616652356495478178_);}
	.st10{fill:url(#SVGID_00000047757212048517593340000006810203517109773235_);}
	.st11{fill:url(#SVGID_00000081634472205209808620000011657938267627421832_);}
	.st12{fill:url(#SVGID_00000023961336095611262640000011227182387151403445_);}
	.st13{fill:url(#SVGID_00000033342626201788859540000010220540231619150728_);}
</style>
<path d="M1025.5,213.5c3.6,0,6.8-1.6,9-4.1c0.5-0.6,1-1.2,1.4-1.9c0.1-0.2,3.3-5.1,3.4-5.2c0-0.1,0.1-0.1,0.1-0.2
	c1.1-1.7,1.8-3.8,1.9-6l0-0.2c0-0.2,0-40.3,0-40.3c0-6.6-5.4-12-12-12l-83.1-0.2c0,0,0,0,0,0c-3.7,0-7.1,1.7-9.4,4.5
	c-0.4,0.5-4.3,6.3-4.5,6.7c-0.7,1-1.2,2-1.6,3.2l-3.3,10.5c-2,6.2-4,12.6-6.1,19.2c-3.1-8.6-6.2-17.3-9.1-26l-3.4-10.1
	c-1.6-4.9-6.2-8.1-11.3-8.1l-10,0l-25.1,0v-29.5c2.9-1.2,5.5-3,7.7-5.3l2.1-2.1c4.6-4.5,7.2-10.6,7.2-17v-9.3
	c0-13.1-10.7-24.8-23.8-24.8H622.1C605,55.4,597.4,66,597.4,66S574.6,0.4,500.6,0.7c-46.9,0.4-77.3,33.5-78.6,34.9
	c-8.9,9.1-16.1,18.7-21.4,30.2c0.2,0.2-7.4-10.3-24.5-10.5c-7.9-0.1-178.5,1-180.1,1c-25.1,0-26.3,19.4-26.3,26.3v9.3
	c0,10.6,6.9,18.8,16.9,21.9c0,6.2,0,21.6,0,29.5c-9.4,0-18.1,0-23.6,0l-10.8,0c-3.7,0-7.1,1.7-9.3,4.5c-0.4,0.5-4.3,6.3-4.6,6.8
	c-0.4,0.7-0.8,1.4-1.1,2.2l0,0.1c-0.1,0.2-0.2,0.4-0.2,0.6l-3.4,10.3c-2.1,6.3-4.3,12.9-6.5,19.9c-3-8.4-12.1-36-12.1-36
	c-1.6-4.9-6.2-8.3-11.4-8.3c0,0,0,0,0,0l-85.8,0.2c-4,0-7.6,2-9.7,5c-0.2,0.3-4,5.9-4.1,6.1c-1.2,1.8-1.9,3.9-2,6.1l0,0.1
	c0,0.2,0,40.1,0,40.1c0,6.6,5.3,12,11.9,12l5,0l0,71.2c0,8.8-0.3,18-0.6,26.1l-4.3,0.9c-2.7,0.5-5,2-6.7,4c-0.3,0.4-4.7,6.8-4.8,7
	c-1.1,1.7-1.8,3.7-1.9,5.9l0,0.1c0,0.2,0,39.6,0,39.6c0,3.4,1.5,6.7,4.1,9c2.2,1.9,5,3,7.9,3c0.5,0,1,0,1.5-0.1l16.9-2.1
	c17-2.1,34.6-4.3,52.6-6.3l65-6.8c23.1-2.2,46.6-4.2,69.6-6l13.9-1.1c3.2-0.3,6.1-1.8,8.1-4c0.6-0.7,4.7-6.8,4.9-7.2
	c1.1-1.7,1.8-3.7,2-5.8c0-0.3,0-0.6,0-0.9l0-3.5c5.8,4.3,12.6,7.7,20.2,10c9.3,2.8,19.9,4.2,32.5,4.2c3.7,0,7.6-0.1,12-0.3
	c31.7-1.7,54.3-10.7,68.8-27.4c0.4,0.5,0.8,0.9,1.3,1.3l4.8,4.1c13.7,11.5,33,17.4,57.2,17.4c2,0,4.1,0,6.2-0.1
	c11.9-0.5,28.3-2.8,43.7-10.6c2,3.9,6,6.6,10.7,6.6l15,0c39.3,0.1,79.1,0.6,118.3,1.7l14.4,0.4c0.1,0,0.2,0,0.3,0
	c4.3,0,8.2-2.3,10.3-5.8c0.4-0.4,0.7-0.9,1-1.4c0.1-0.1,0.1-0.2,0.2-0.2c0.3-0.3,0.5-0.7,0.7-1.1c0.2-0.2,0.3-0.5,0.5-0.7
	c0.2-0.2,0.3-0.5,0.5-0.7c0.1-0.2,0.3-0.4,0.4-0.6c0,0,0-0.1,0.1-0.1c0.2-0.2,0.3-0.5,0.5-0.7c0.2-0.3,0.4-0.6,0.5-0.9
	c7.2,5.7,15.8,10.2,25.7,13.3c13.1,4.1,26.6,5.2,36.8,5.8c3.2,0.2,6.3,0.3,9.2,0.3c15.5,0,29-2.5,40.2-7.3c6-2.6,11.4-5.9,16.1-9.9
	l0,12.5c0,6.3,4.8,11.5,11.1,11.9c0,0,48.5,3.9,66.5,5.5l65.1,6.5c23.1,2.5,46.5,5.3,69.5,8.2l16.9,2.1c0.5,0.1,1,0.1,1.5,0.1
	c2.8,0,5.6-1,7.7-2.8c0.8-0.7,1.5-1.4,2.1-2.3c0.3-0.3,3.9-5.7,4-5.9c0.1-0.1,0.1-0.2,0.1-0.2c1.2-1.8,1.8-3.9,1.9-6l0-0.3
	c0-0.2,0-0.3,0-0.5v-40.3c0-6.2-4.8-11.4-11-12l-5.9-0.5l0-95.7l0.9,0C1025.4,213.5,1025.4,213.5,1025.5,213.5z"/>
<path class="st0" d="M1020.3,157.5v1h-1.9v4.9h-1.2v-4.9h-1.9v-1H1020.3z M1026.7,163.4l-0.2-3.5c0-0.5,0-1,0-1.6h-0.1
	c-0.2,0.5-0.3,1.2-0.5,1.8l-1.1,3.3h-1.2l-1.1-3.4c-0.1-0.5-0.3-1.2-0.4-1.7h-0.1c0,0.5,0,1.1,0,1.6l-0.2,3.5h-1.1l0.4-5.9h1.8
	l1,2.9c0.1,0.5,0.2,0.9,0.4,1.5h0c0.2-0.5,0.3-1,0.4-1.5l1-2.9h1.7l0.5,5.9H1026.7z"/>
<path class="st1" d="M586,111.2c0,10.8-1.9,21.1-5.3,30.7H473.8c-0.6-0.4-1.1-0.8-1.5-1.4c-4.9-8.3,7.2-15.7,13.2-19.4
	c10.5-6.3,21.4-11.9,31.5-18.8c7.2-4.9,7.2-13.7,1-17c-3.2-1.8-7.8-1.8-11.3-1.5l-3.6-6c11.1-0.8,26.1,0.9,30.2,11.3
	c3.4,8.5-1.6,15.3-12.8,23.4c-3.7,2.7-16.4,11.7-12.8,12.6c0.1,0,57.5-0.1,57.5-0.1c6.8,0,9.5-4.6,6.2-10.2l-41-67.8
	c-1.7-2.9-4-4.2-6.3-4.2c-2.3,0-4.5,1.3-6.3,4.2l-16.7,27.6L487.1,51c-1.7-2.9-4.1-4.3-6.3-4.2c-2.3-0.1-4.6,1.3-6.3,4.2
	c0,0-49.1,81.9-54.2,90.6c-3.4-9.5-5.2-19.7-5.2-30.3c0-48.8,38.3-88.3,85.5-88.3C547.8,22.9,586,62.4,586,111.2z M224.8,140.9
	c0.9,0,1.7-0.7,1.7-1.7V91.1h15.3c0.9,0,1.7-0.8,1.7-1.7v-9.3c0-0.9-0.7-1.7-1.7-1.7H196c-0.9,0-1.7,0.7-1.7,1.7v9.3
	c0,0.9,0.7,1.7,1.7,1.7h15.3v48.1c0,0.9,0.7,1.7,1.7,1.7H224.8z M317.8,140.9c0.8,0,1.4-0.5,1.6-1.2l15.4-59.1c0.1-0.5,0-1-0.3-1.4
	c-0.3-0.4-0.8-0.6-1.3-0.6h-11.5c-0.8,0-1.4,0.5-1.6,1.3l-9.5,40.5l-8.9-40.4c-0.2-0.8-0.8-1.3-1.6-1.3h-16.1
	c-0.8,0-1.5,0.5-1.6,1.3l-8.6,40.3l-9.4-40.3c-0.2-0.8-0.9-1.3-1.6-1.3h-12.4c-0.5,0-1,0.2-1.3,0.7c-0.3,0.4-0.4,0.9-0.3,1.5
	l15.7,59.1c0.2,0.7,0.9,1.2,1.6,1.2h15.3c0.8,0,1.5-0.5,1.6-1.3l9-40.3l9.1,40.3c0.2,0.8,0.9,1.3,1.6,1.3H317.8z M397.3,109.5
	c0-19.5-12-32.1-30.6-32.1c-18.9,0-30.6,12.3-30.6,32.1c0,20,11.7,32.4,30.6,32.4C385.3,141.9,397.3,129.2,397.3,109.5z
	 M381.6,109.5c0,4.6-1.1,19.8-14.9,19.8c-13.8,0-14.9-15.1-14.9-19.8c0-9,3.9-19.4,14.9-19.4C377.7,90.1,381.6,100.6,381.6,109.5z
	 M620.5,140.9c0.9,0,1.7-0.7,1.7-1.7v-20.8h3.3c15.8,0,24.4-7.3,24.4-20.5c0-8.9-4.6-19.5-26.3-19.5h-15c-0.9,0-1.7,0.7-1.7,1.7
	v59.1c0,0.9,0.7,1.7,1.7,1.7H620.5z M622.1,105.8V91.1h2.5c6.4,0,9.6,2.5,9.6,7.6c0,1.8,0,7.1-9.6,7.1H622.1z M715.5,109.5
	c0-19.5-12-32.1-30.6-32.1c-18.9,0-30.6,12.3-30.6,32.1c0,20,11.7,32.4,30.6,32.4C703.5,141.9,715.5,129.2,715.5,109.5z
	 M699.8,109.5c0,4.6-1.1,19.8-14.9,19.8c-13.8,0-14.9-15.1-14.9-19.8c0-9,3.9-19.4,14.9-19.4S699.8,100.6,699.8,109.5z M735.9,140.9
	c0.9,0,1.7-0.7,1.7-1.7V80.2c0-0.9-0.8-1.7-1.7-1.7H724c-0.9,0-1.7,0.7-1.7,1.7v59.1c0,0.9,0.8,1.7,1.7,1.7H735.9z M797,140.9
	c0.9,0,1.7-0.7,1.7-1.7V80.2c0-0.9-0.7-1.7-1.7-1.7h-11.3c-0.9,0-1.7,0.7-1.7,1.7v37.6l-19.5-38.3c-0.3-0.6-0.9-0.9-1.5-0.9h-14.6
	c-0.9,0-1.7,0.7-1.7,1.7v59.1c0,0.9,0.7,1.7,1.7,1.7h11.3c0.9,0,1.7-0.7,1.7-1.7v-37.6l19.6,38.3c0.3,0.6,0.9,0.9,1.5,0.9H797z
	 M835.3,140.9c0.9,0,1.7-0.7,1.7-1.7V91.1h15.3c0.9,0,1.7-0.8,1.7-1.7v-9.3c0-0.9-0.8-1.7-1.7-1.7h-45.7c-0.9,0-1.7,0.7-1.7,1.7v9.3
	c0,0.9,0.7,1.7,1.7,1.7h15.3v48.1c0,0.9,0.8,1.7,1.7,1.7H835.3z"/>
<g>
	<g>
		<g>
			<path d="M33.5,342.3c0-3.7,0-5.6,0-9.3c10.3-2,16.3-4.8,16.8-16.2c0.6-12.4,1.1-26,1.1-39.1c0-27.1,0-54.1,0-81.2
				c0.9-11.8-6-14.1-16.6-14.2c0-3.7,0-5.6,0-9.3c19.5-0.1,39-0.2,58.5-0.3c11,33.6,24,66.5,35.6,100c0.3,0,0.4,0,0.7,0
				c10.8-33.4,21.6-66.9,32.7-100.2c18.6-0.1,37.2-0.1,55.8-0.2c0,3.4,0,5,0,8.4c-9.3,0-18.1,2-16.6,13.3
				c-0.1,36.7-0.1,73.5-0.2,110.2c0,11.3,2,12.3,16.6,12c0,3.4,0,5,0,8.4c-22.8,1.7-45.7,3.6-68.5,5.7c0-3.5,0-5.2,0-8.7
				c9.3-0.9,18.4-3.4,16.6-14.8c0.1-37.2,0.1-74.5,0.2-111.7c-0.3,0-0.4,0-0.7,0c-14.9,45.7-28.5,91.8-42.3,137.9
				c-5.5,0.5-8.3,0.8-13.9,1.4c-15-45.8-29.4-91.8-44.7-137.5c-0.3,0-0.4,0-0.7,0c0,26.7,0,53.4,0,80c0,12.8,0.3,26.1,1.1,38.5
				c0.9,12.8,10,12.6,20.2,12.1c0,3.6,0,5.4,0,9C68,338.3,50.7,340.2,33.5,342.3z"/>
			<path d="M387.5,171.8c0,3.2,0,4.7,0,7.9c-14.1,0.7-15.9,1.8-16,12.2c0,26.2-0.1,52.3-0.1,78.5c-0.7,9.7-1.2,19.7-6.9,28
				c-11.2,18.3-34.9,23-54.5,23.7c-18.4,0.7-42.4,1.2-54.9-15.5c-6.3-9.3-8.3-20.9-8.1-31.9c0-27.2,0.1-54.4,0.1-81.7
				c0-10.8-1.8-11.9-15.9-12.5c0-3.3,0-5,0-8.3c23-0.1,46-0.1,69-0.2c0,3.2,0,4.9,0,8.1c-13.9,0.7-15.7,1.9-15.7,12.5
				c0,28.2-0.1,56.3-0.1,84.5c-0.3,16.4,5.5,36.2,25.4,35.1c19.8-1.1,26.2-19.7,26-37.1c0-27.7,0.1-55.4,0.1-83.1
				c0-10.5-1.8-11.6-15.7-12.2c0-3.2,0-4.8,0-8.1C342.7,171.8,365.1,171.8,387.5,171.8z"/>
			<path d="M491.1,211.3c-4-16-15.3-33-33.2-33.5c-11.9-0.3-20.9,9.9-21.4,21.2c-0.7,16.1,20.7,23.8,32.3,28.7
				c19.3,8.2,39.9,20.3,39.4,44c-0.7,31.8-29.4,44.3-56.8,45.4c-14.6,0.6-33.8-1.1-45.8-11.2c-1-12.7-1.9-25.4-2.9-38
				c3.2-0.1,4.8-0.1,8-0.2c5.8,17.9,19,40,40.3,39.6c12.2-0.2,23.2-9.1,22.8-22c-0.4-14.2-14.6-23.1-26.6-27.7
				c-21-8-43.3-20.3-43.2-45.8c0.1-30.4,26.1-43.8,54-43.6c13.7,0.1,28.9,2.1,41,9.1c0,11.3,0,22.7,0,34
				C495.7,211.3,494.2,211.3,491.1,211.3z"/>
			<path d="M539.8,191.4c0-10.2-1.8-11.3-16.6-11.9c0-3.1,0-4.7,0-7.8c38.9,0,77.9,0,116.8,0.1c0,12.9,0,25.8,0,38.7
				c-3.3,0-4.9,0-8.2-0.1c-5.8-17.1-12.9-29.7-32.8-29.1c-5.8,0-8.7,0-14.6,0c-5.9,0-7.5,1.5-7.5,7.6c0,15.2,0,30.4,0,45.6
				c7.3,0,10.9,0.1,18.2,0.1c12.3,0.5,18-7.2,19.6-18.8c3.3,0,4.9,0,8.2,0.1c0,16.4,0,32.9,0,49.3c-3.3-0.1-4.9-0.1-8.2-0.1
				c-1.7-11.5-7.1-20.3-19.6-20c-7.3-0.1-10.9-0.1-18.2-0.2c0,14.8,0,29.5,0,44.3c-2.1,16,13.9,14.9,25.3,15.1
				c22.2,0.5,30.2-14.3,37.1-33.1c3.3,0.1,4.9,0.1,8.2,0.2c-1,14.5-2.1,29-3.1,43.5c-40.4-1.1-80.8-1.7-121.3-1.8c0-3.1,0-4.7,0-7.8
				c14.8-0.6,16.6-1.7,16.6-12.1C539.8,259.2,539.8,225.3,539.8,191.4z"/>
			<path d="M815.8,172.1c0,3.3,0,5,0,8.3c-14.1,0.6-15.9,1.7-15.9,12.6c0,27.3,0.1,54.6,0.1,81.9c0.1,9.8-1.3,20.2-6.8,28.6
				c-11.2,18.1-35.4,20.1-54.4,18.7c-19.1-1.3-42.5-3.6-54.9-20.7c-6.1-9.2-8.4-20.4-8.2-31.4c0-26.1-0.1-52.2-0.1-78.3
				c0-10.4-1.8-11.5-16-12.2c0-3.2,0-4.7,0-7.9c23,0,46,0.1,69,0.1c0,3.2,0,4.8,0,8.1c-13.9,0.6-15.7,1.7-15.7,12.2
				c0,27.7,0.1,55.4,0.1,83.1c-0.2,16.9,6,36,25.6,37.1c20.3,1.1,26.2-18.2,25.9-35.1c0-28.2-0.1-56.4-0.1-84.6
				c0-10.7-1.8-11.8-15.7-12.6c0-3.2,0-4.9,0-8.1C771,172,793.4,172.1,815.8,172.1z"/>
			<path d="M827.9,324.4c0-3.4,0-5,0-8.4c11.4-0.6,15.6,1.4,16.8-11.9c1.1-11.7,1.1-23.8,1.1-35.7c0-24.8-0.1-49.7-0.1-74.5
				c1.8-11.4-7.6-13.1-16.6-13.3c0-3.4,0-5,0-8.4c19.5,0.1,39,0.1,58.5,0.2c11.5,33.7,24.6,66.9,35.9,100.6c0.3,0,0.4,0,0.7,0
				c11.1-33.4,21.8-66.9,32.4-100.4c18.6,0.1,37.2,0.2,55.8,0.3c0,3.7,0,5.6,0,9.3c-10.8-0.2-17.2,2.5-16.6,14.2
				c0,40.1,0,80.2,0,120.3c-0.6,11.7,5.8,15,16.6,16.2c0,3.7,0,5.6,0,9.3c-22.8-2.7-45.6-5.2-68.4-7.6c0-3.6,0-5.4,0-8.9
				c9.4,0.8,18.7-0.5,16.6-12.4c0-39-0.1-78-0.1-117.1c-0.3,0-0.4,0-0.7,0c-14.1,45.3-27.7,90.8-41.9,136c-5.5-0.5-8.3-0.8-13.9-1.3
				c-14.4-45.6-29-91.3-45-136.4c-0.3,0-0.4,0-0.7,0c0,24.8,0.1,49.7,0.1,74.5c0.1,12,0.2,24.3,1.2,36c1,12.3,10.1,13.5,20.3,14.9
				c0,3.4,0,5.2,0,8.6C862.5,327.1,845.2,325.7,827.9,324.4z"/>
		</g>
		<g>
			<linearGradient id="SVGID_1_" gradientUnits="userSpaceOnUse" x1="124.8982" y1="138.9254" x2="126.792" y2="387.0013">
				<stop  offset="0" style="stop-color:#FFFACB"/>
				<stop  offset="7.438353e-02" style="stop-color:#EA9C29"/>
				<stop  offset="0.2828" style="stop-color:#EDD587"/>
				<stop  offset="0.3057" style="stop-color:#EFD88D"/>
				<stop  offset="0.4811" style="stop-color:#FAF1BA"/>
				<stop  offset="0.5698" style="stop-color:#FFFACB"/>
				<stop  offset="0.757" style="stop-color:#C2912E"/>
				<stop  offset="0.9972" style="stop-color:#FFFACB"/>
			</linearGradient>
			<path class="st2" d="M107.1,337.8c-0.3-0.9-0.4-1.3-0.7-2.2c-13.2-40.3-26.1-80.8-39.3-121.2c0,20.7,0,41.4,0,62.1
				c0,12.6-0.1,25.5,1.1,38c1,9.9,3.6,9.9,11.8,9.5c1.7-0.1,3.6-0.2,5.6-0.1c1.1,0,1.7,0,2.8,0c0,6.2,0,9.4,0,15.6
				c-19.4,2.1-38.7,4.4-58.1,6.7c0-6.5,0-9.7,0-16.1c1.1-0.3,1.7-0.4,2.8-0.7c1.7-0.4,3.2-0.7,4.6-1c7.7-1.6,8.7-1.8,9.5-11.7
				c0,0,0-0.1,0-0.1c1.3-12.8,1.1-25.8,1.1-38.7c0-27.1,0-54.3,0-81.4c0-9.5,0-10.1-13.6-10.6c-1.2,0-1.8-0.1-3-0.1
				c0-6.5,0-9.8,0-16.4c21.3-0.1,42.6-0.1,63.9-0.2c0.3,0.9,0.4,1.4,0.7,2.3c6.8,20.8,14.3,41.4,21.9,61.9
				c3.7,10.1,7.4,20.2,11.1,30.3c6-18.4,11.9-36.8,17.9-55.2c4-12.4,8.1-24.8,12.2-37.3c0.3-0.9,0.4-1.3,0.7-2.2
				c20.4,0,40.8-0.1,61.2-0.1c0,5.9,0,8.8,0,14.7c-1.2,0.1-1.8,0.1-3,0.2c-13.6,0.8-13.6,1.3-13.6,10c-0.1,36.7-0.1,73.3-0.2,110
				c0,8.7,0,9.2,13.6,8.9c1.2,0,1.8,0,3-0.1c0,5.9,0,8.8,0,14.7c-24.9,1.9-49.9,4-74.8,6.3c0-6.1,0-9.1,0-15.2
				c1.2-0.2,1.8-0.2,3-0.4c13.6-1.8,13.6-2.1,13.6-11.2c0-31.3,0.1-62.6,0.1-93.9c-9.7,30.6-19.1,61.4-28.3,92.1
				c-2.8,9.5-5.7,19-8.5,28.5c-0.3,1-0.4,1.4-0.7,2.4C118.1,336.6,114.5,337,107.1,337.8z"/>
			
				<linearGradient id="SVGID_00000088814726125432315260000013228045532882731162_" gradientUnits="userSpaceOnUse" x1="309.139" y1="140.8996" x2="310.7906" y2="357.2595">
				<stop  offset="0" style="stop-color:#FFFACB"/>
				<stop  offset="7.438353e-02" style="stop-color:#EA9C29"/>
				<stop  offset="0.2828" style="stop-color:#EDD587"/>
				<stop  offset="0.3057" style="stop-color:#EFD88D"/>
				<stop  offset="0.4811" style="stop-color:#FAF1BA"/>
				<stop  offset="0.5698" style="stop-color:#FFFACB"/>
				<stop  offset="0.757" style="stop-color:#C2912E"/>
				<stop  offset="0.9972" style="stop-color:#FFFACB"/>
			</linearGradient>
			<path style="fill:url(#SVGID_00000088814726125432315260000013228045532882731162_);" d="M310.1,325.2
				c-19.7,0.6-44.3,1.1-57.4-16.6c0,0,0-0.1-0.1-0.1c-6.6-9.9-8.8-22-8.7-33.7c0-27.3,0.1-54.5,0.1-81.8c0-4.7-0.4-6.8-1.4-7.6
				c-1.7-1.3-6.4-1.6-11.5-1.8c-1.2,0-1.8-0.1-3-0.1c0-5.8,0-8.8,0-14.6c25.1,0,50.2-0.1,75.3-0.1c0,5.7,0,8.5,0,14.2
				c-1.2,0.1-1.8,0.1-3,0.2c-5,0.3-9.7,0.6-11.3,1.9c-1,0.8-1.4,2.8-1.4,7.5c0,28.1-0.1,56.3-0.1,84.4c-0.4,14.6,4.7,33.1,22.3,32.2
				c17.9-1,23.1-18.4,22.9-33.9c0-27.7,0.1-55.4,0.1-83.1c0-4.6-0.4-6.6-1.4-7.4c-1.6-1.2-6.3-1.5-11.3-1.7c-1.2-0.1-1.8-0.1-3-0.1
				c0-5.6,0-8.5,0-14.1c24.5,0,49-0.1,73.5-0.1c0,5.5,0,8.3,0,13.8c-1.2,0.1-1.8,0.1-3,0.2c-5.1,0.3-9.8,0.6-11.5,1.8
				c-1.1,0.8-1.4,2.8-1.5,7.3c0,26.1-0.1,52.3-0.1,78.4c0.1,10.2-1.9,20.9-7.4,29.6C355,319.2,331.2,323.4,310.1,325.2z"/>
			
				<linearGradient id="SVGID_00000140724486809385919360000015689843671526194081_" gradientUnits="userSpaceOnUse" x1="454.3283" y1="140.5034" x2="455.9272" y2="349.9664">
				<stop  offset="0" style="stop-color:#FFFACB"/>
				<stop  offset="7.438353e-02" style="stop-color:#EA9C29"/>
				<stop  offset="0.2828" style="stop-color:#EDD587"/>
				<stop  offset="0.3057" style="stop-color:#EFD88D"/>
				<stop  offset="0.4811" style="stop-color:#FAF1BA"/>
				<stop  offset="0.5698" style="stop-color:#FFFACB"/>
				<stop  offset="0.757" style="stop-color:#C2912E"/>
				<stop  offset="0.9972" style="stop-color:#FFFACB"/>
			</linearGradient>
			<path style="fill:url(#SVGID_00000140724486809385919360000015689843671526194081_);" d="M451.4,320.1
				c-16,0.3-34.9-1.5-47.9-11.9c-0.4-0.3-0.6-0.5-0.9-0.8c-1.1-14.2-2.2-28.3-3.3-42.5c5.5-0.1,8.2-0.2,13.7-0.3
				c0.3,0.8,0.4,1.3,0.7,2.1c6.3,16.2,16.8,37.8,37.3,37.6c10.5-0.1,19.9-7.9,19.7-19c-0.3-12.5-14.3-21-24.8-25
				c-22.2-8.4-44.7-21.8-45.1-48.5c-0.5-32.1,28.6-46.9,57.2-46.6c14.5,0.1,29.8,2.4,42.6,9.5c0.6,0.3,0.9,0.5,1.5,0.9
				c0,12.9,0,25.8,0,38.7c-5.3,0-8,0-13.4,0c-0.2-0.9-0.4-1.4-0.6-2.3c-3.4-13.8-13.9-31.5-30.2-31.3c-10,0.1-18.6,7.9-18.3,18.1
				c0.5,13.5,16.5,20,27.2,24.5c1.1,0.5,2.2,1,3.4,1.5c0.1,0,0.1,0,0.1,0.1c20.4,8.6,41.5,21.9,41.1,46.7
				C510.7,304,481,320.1,451.4,320.1z"/>
			
				<linearGradient id="SVGID_00000132078094652291805940000000053818029923535282_" gradientUnits="userSpaceOnUse" x1="584.3721" y1="139.266" x2="585.9855" y2="350.6201">
				<stop  offset="0" style="stop-color:#FFFACB"/>
				<stop  offset="7.438353e-02" style="stop-color:#EA9C29"/>
				<stop  offset="0.2828" style="stop-color:#EDD587"/>
				<stop  offset="0.3057" style="stop-color:#EFD88D"/>
				<stop  offset="0.4811" style="stop-color:#FAF1BA"/>
				<stop  offset="0.5698" style="stop-color:#FFFACB"/>
				<stop  offset="0.757" style="stop-color:#C2912E"/>
				<stop  offset="0.9972" style="stop-color:#FFFACB"/>
			</linearGradient>
			<path style="fill:url(#SVGID_00000132078094652291805940000000053818029923535282_);" d="M520.1,316c0-5.5,0-8.2,0-13.6
				c1.2-0.1,1.8-0.1,3-0.1c5.4-0.2,10.4-0.5,12.1-1.8c1.1-0.8,1.5-2.7,1.5-7.3c0-33.9,0-67.8,0-101.7c0-8,0-8.3-13.6-8.9
				c-1.2-0.1-1.8-0.1-3-0.1c0-5.5,0-8.2,0-13.6c41,0,82.1,0,123.1,0c0,14.9,0,29.9,0,44.8c-5.4-0.1-8.2-0.1-13.6-0.1
				c-0.3-0.8-0.4-1.2-0.7-2c-5.3-15.9-11.2-27.8-29.8-27.1c-5.8,0-8.7,0-14.6,0c-2.7,0-3.5,0.4-3.7,0.6c-0.2,0.2-0.7,1.1-0.7,4
				c0,14.2,0,28.4,0,42.6c6,0,9,0.1,15.1,0.1c10.7,1.3,15.2-6.9,16.5-16.4c0.2-1,0.3-1.4,0.5-2.4c5.6,0,8.3,0.1,13.9,0.1
				c0,18.5,0,36.9,0.1,55.4c-5.6-0.1-8.3-0.1-13.9-0.2c-0.2-1-0.3-1.4-0.5-2.4c-1.4-9.5-5.6-18.6-16.5-17.6c-6-0.1-9-0.1-15.1-0.1
				c0,13.8,0,27.5,0,41.3c0,6.1,0.3,8.5,2.2,9.7c2.7,1.8,9.9,2,20,2.4c19.7,0.7,27.1-11.7,33.2-28.6c0.7-1.8,1.1-2.7,1.8-4.6
				c5.5,0.1,8.3,0.2,13.8,0.3c-1.2,16.5-2.4,33.1-3.6,49.6C605,316.7,562.5,316,520.1,316z"/>
			
				<linearGradient id="SVGID_00000079457148546192441360000005148866474196965807_" gradientUnits="userSpaceOnUse" x1="737.4025" y1="137.4051" x2="739.058" y2="354.2809">
				<stop  offset="0" style="stop-color:#FFFACB"/>
				<stop  offset="7.438353e-02" style="stop-color:#EA9C29"/>
				<stop  offset="0.2828" style="stop-color:#EDD587"/>
				<stop  offset="0.3057" style="stop-color:#EFD88D"/>
				<stop  offset="0.4811" style="stop-color:#FAF1BA"/>
				<stop  offset="0.5698" style="stop-color:#FFFACB"/>
				<stop  offset="0.757" style="stop-color:#C2912E"/>
				<stop  offset="0.9972" style="stop-color:#FFFACB"/>
			</linearGradient>
			<path style="fill:url(#SVGID_00000079457148546192441360000005148866474196965807_);" d="M738.9,325.4
				c-20.4-1.6-44.4-4.1-57.5-22.1c0,0,0-0.1-0.1-0.1c-6.5-9.7-8.9-21.5-8.8-33.1c0-26.1-0.1-52.2-0.1-78.3c0-4.5-0.4-6.5-1.5-7.3
				c-1.7-1.2-6.4-1.6-11.5-1.8c-1.2-0.1-1.8-0.1-3-0.2c0-5.5,0-8.3,0-13.8c25.1,0,50.2,0,75.3,0.1c0,5.7,0,8.5,0,14.1
				c-1.2,0.1-1.8,0.1-3,0.1c-5,0.2-9.7,0.5-11.3,1.7c-1,0.8-1.4,2.8-1.4,7.4c0,27.7,0.1,55.5,0.1,83.2c-0.3,15,5,33,22.4,33.9
				c18.3,0.9,23.1-17.1,22.8-32.2c0-28.2-0.1-56.3-0.1-84.5c0-4.7-0.4-6.7-1.4-7.5c-1.6-1.3-6.3-1.6-11.3-1.9
				c-1.2-0.1-1.8-0.1-3-0.2c0-5.7,0-8.5,0-14.2c24.5,0,49,0.1,73.5,0.1c0,5.9,0,8.8,0,14.6c-1.2,0-1.8,0.1-3,0.1
				c-5.1,0.2-9.8,0.5-11.5,1.8c-1.1,0.8-1.4,2.9-1.4,7.6c0,27.3,0.1,54.7,0.1,82c0.2,10.4-1.6,21.5-7.3,30.3
				C783.7,324.6,759.3,325.9,738.9,325.4z"/>
			
				<linearGradient id="SVGID_00000044896599898110524810000017073186202081970089_" gradientUnits="userSpaceOnUse" x1="919.179" y1="131.2518" x2="921.0929" y2="381.9723">
				<stop  offset="0" style="stop-color:#FFFACB"/>
				<stop  offset="7.438353e-02" style="stop-color:#EA9C29"/>
				<stop  offset="0.2828" style="stop-color:#EDD587"/>
				<stop  offset="0.3057" style="stop-color:#EFD88D"/>
				<stop  offset="0.4811" style="stop-color:#FAF1BA"/>
				<stop  offset="0.5698" style="stop-color:#FFFACB"/>
				<stop  offset="0.757" style="stop-color:#C2912E"/>
				<stop  offset="0.9972" style="stop-color:#FFFACB"/>
			</linearGradient>
			<path style="fill:url(#SVGID_00000044896599898110524810000017073186202081970089_);" d="M901.6,334.1c-0.3-0.9-0.4-1.4-0.7-2.3
				c-12.8-40.3-25.8-80.6-39.6-120.6c0,19.3,0.1,38.7,0.1,58c0.1,11.9,0,23.9,1.2,35.7c0.9,9.4,3.7,9.9,11.8,10.9
				c1.7,0.2,3.6,0.5,5.6,0.8c1.1,0.2,1.7,0.3,2.8,0.5c0,6,0,9,0,14.9c-19.4-1.7-38.8-3.3-58.2-4.8c0-5.8,0-8.7,0-14.5
				c1.1-0.1,1.7-0.1,2.8-0.1c1.7-0.1,3.2-0.1,4.6-0.1c7.8-0.2,8.7-0.2,9.5-9.1c0,0,0-0.1,0-0.1c1.3-11.7,1-23.5,1.1-35.2
				c0-24.8-0.1-49.6-0.1-74.4c0-8.7,0-9.2-13.6-10c-1.2-0.1-1.8-0.1-3-0.2c0-5.9,0-8.8,0-14.7c21.3,0,42.6,0.1,63.9,0.1
				c0.3,0.9,0.4,1.3,0.7,2.2c7,20.6,14.6,41,22,61.5c3.8,10.4,7.5,20.9,11.2,31.3c6-18.2,11.9-36.4,17.8-54.6
				c4.1-12.7,8.1-25.4,12.1-38c0.3-0.9,0.4-1.4,0.7-2.3c20.4,0.1,40.8,0.1,61.2,0.2c0,6.6,0,9.8,0,16.4c-1.2,0-1.8,0.1-3,0.1
				c-13.6,0.5-13.6,1.1-13.6,10.7c0,40.2,0,80.3,0,120.5c0,9.5,0,10.1,13.6,12.3c1.2,0.2,1.8,0.3,3,0.5c0,6.6,0,9.8,0,16.4
				c-24.9-3-49.7-5.9-74.7-8.5c0-6.2,0-9.4,0-15.6c1.2,0.1,1.8,0.1,3,0.1c13.6,0.6,13.6,0.3,13.6-9.2c0-32.7-0.1-65.3-0.1-98
				c-9.4,30.5-18.6,61-28.1,91.5c-2.8,9-5.6,18.1-8.4,27.1c-0.3,0.9-0.4,1.4-0.7,2.3C912.7,335.2,909,334.8,901.6,334.1z"/>
		</g>
		<g>
			
				<linearGradient id="SVGID_00000183956151267748185840000011715714521093512636_" gradientUnits="userSpaceOnUse" x1="125.7968" y1="314.9389" x2="125.7968" y2="209.9591">
				<stop  offset="0" style="stop-color:#FFB22A"/>
				<stop  offset="0.1333" style="stop-color:#C2912E"/>
				<stop  offset="1" style="stop-color:#FFFAB1"/>
			</linearGradient>
			<path style="fill:url(#SVGID_00000183956151267748185840000011715714521093512636_);" d="M33.5,342.3c0-3.7,0-5.6,0-9.3
				c10.3-2,16.3-4.8,16.8-16.2c0.6-12.4,1.1-26,1.1-39.1c0-27.1,0-54.1,0-81.2c0.9-11.8-6-14.1-16.6-14.2c0-3.7,0-5.6,0-9.3
				c19.5-0.1,39-0.2,58.5-0.3c11,33.6,24,66.5,35.6,100c0.3,0,0.4,0,0.7,0c10.8-33.4,21.6-66.9,32.7-100.2
				c18.6-0.1,37.2-0.1,55.8-0.2c0,3.4,0,5,0,8.4c-9.3,0-18.1,2-16.6,13.3c-0.1,36.7-0.1,73.5-0.2,110.2c0,11.3,2,12.3,16.6,12
				c0,3.4,0,5,0,8.4c-22.8,1.7-45.7,3.6-68.5,5.7c0-3.5,0-5.2,0-8.7c9.3-0.9,18.4-3.4,16.6-14.8c0.1-37.2,0.1-74.5,0.2-111.7
				c-0.3,0-0.4,0-0.7,0c-14.9,45.7-28.5,91.8-42.3,137.9c-5.5,0.5-8.3,0.8-13.9,1.4c-15-45.8-29.4-91.8-44.7-137.5
				c-0.3,0-0.4,0-0.7,0c0,26.7,0,53.4,0,80c0,12.8,0.3,26.1,1.1,38.5c0.9,12.8,10,12.6,20.2,12.1c0,3.6,0,5.4,0,9
				C68,338.3,50.7,340.2,33.5,342.3z"/>
			
				<linearGradient id="SVGID_00000021103945573831794970000016644278088713460391_" gradientUnits="userSpaceOnUse" x1="309.4088" y1="295.3459" x2="309.4088" y2="204.4809">
				<stop  offset="0" style="stop-color:#FFB22A"/>
				<stop  offset="0.1333" style="stop-color:#C2912E"/>
				<stop  offset="1" style="stop-color:#FFFAB1"/>
			</linearGradient>
			<path style="fill:url(#SVGID_00000021103945573831794970000016644278088713460391_);" d="M387.5,171.8c0,3.2,0,4.7,0,7.9
				c-14.1,0.7-15.9,1.8-16,12.2c0,26.2-0.1,52.3-0.1,78.5c-0.7,9.7-1.2,19.7-6.9,28c-11.2,18.3-34.9,23-54.5,23.7
				c-18.4,0.7-42.4,1.2-54.9-15.5c-6.3-9.3-8.3-20.9-8.1-31.9c0-27.2,0.1-54.4,0.1-81.7c0-10.8-1.8-11.9-15.9-12.5c0-3.3,0-5,0-8.3
				c23-0.1,46-0.1,69-0.2c0,3.2,0,4.9,0,8.1c-13.9,0.7-15.7,1.9-15.7,12.5c0,28.2-0.1,56.3-0.1,84.5c-0.3,16.4,5.5,36.2,25.4,35.1
				c19.8-1.1,26.2-19.7,26-37.1c0-27.7,0.1-55.4,0.1-83.1c0-10.5-1.8-11.6-15.7-12.2c0-3.2,0-4.8,0-8.1
				C342.7,171.8,365.1,171.8,387.5,171.8z"/>
			
				<linearGradient id="SVGID_00000124142860402763519030000003025010547825819032_" gradientUnits="userSpaceOnUse" x1="455.421" y1="291.0944" x2="455.421" y2="203.3017">
				<stop  offset="0" style="stop-color:#FFB22A"/>
				<stop  offset="0.1333" style="stop-color:#C2912E"/>
				<stop  offset="1" style="stop-color:#FFFAB1"/>
			</linearGradient>
			<path style="fill:url(#SVGID_00000124142860402763519030000003025010547825819032_);" d="M491.1,211.3c-4-16-15.3-33-33.2-33.5
				c-11.9-0.3-20.9,9.9-21.4,21.2c-0.7,16.1,20.7,23.8,32.3,28.7c19.3,8.2,39.9,20.3,39.4,44c-0.7,31.8-29.4,44.3-56.8,45.4
				c-14.6,0.6-33.8-1.1-45.8-11.2c-1-12.7-1.9-25.4-2.9-38c3.2-0.1,4.8-0.1,8-0.2c5.8,17.9,19,40,40.3,39.6
				c12.2-0.2,23.2-9.1,22.8-22c-0.4-14.2-14.6-23.1-26.6-27.7c-21-8-43.3-20.3-43.2-45.8c0.1-30.4,26.1-43.8,54-43.6
				c13.7,0.1,28.9,2.1,41,9.1c0,11.3,0,22.7,0,34C495.7,211.3,494.2,211.3,491.1,211.3z"/>
			
				<linearGradient id="SVGID_00000005258317739215447880000005549062005233599886_" gradientUnits="userSpaceOnUse" x1="585.4269" y1="291.9958" x2="585.4269" y2="203.5223">
				<stop  offset="0" style="stop-color:#FFB22A"/>
				<stop  offset="0.1333" style="stop-color:#C2912E"/>
				<stop  offset="1" style="stop-color:#FFFAB1"/>
			</linearGradient>
			<path style="fill:url(#SVGID_00000005258317739215447880000005549062005233599886_);" d="M539.8,191.4c0-10.2-1.8-11.3-16.6-11.9
				c0-3.1,0-4.7,0-7.8c38.9,0,77.9,0,116.8,0.1c0,12.9,0,25.8,0,38.7c-3.3,0-4.9,0-8.2-0.1c-5.8-17.1-12.9-29.7-32.8-29.1
				c-5.8,0-8.7,0-14.6,0c-5.9,0-7.5,1.5-7.5,7.6c0,15.2,0,30.4,0,45.6c7.3,0,10.9,0.1,18.2,0.1c12.3,0.5,18-7.2,19.6-18.8
				c3.3,0,4.9,0,8.2,0.1c0,16.4,0,32.9,0,49.3c-3.3-0.1-4.9-0.1-8.2-0.1c-1.7-11.5-7.1-20.3-19.6-20c-7.3-0.1-10.9-0.1-18.2-0.2
				c0,14.8,0,29.5,0,44.3c-2.1,16,13.9,14.9,25.3,15.1c22.2,0.5,30.2-14.3,37.1-33.1c3.3,0.1,4.9,0.1,8.2,0.2
				c-1,14.5-2.1,29-3.1,43.5c-40.4-1.1-80.8-1.7-121.3-1.8c0-3.1,0-4.7,0-7.8c14.8-0.6,16.6-1.7,16.6-12.1
				C539.8,259.2,539.8,225.3,539.8,191.4z"/>
			
				<linearGradient id="SVGID_00000005226389840498329750000013970732306199709367_" gradientUnits="userSpaceOnUse" x1="737.6989" y1="295.5469" x2="737.6989" y2="204.5356">
				<stop  offset="0" style="stop-color:#FFB22A"/>
				<stop  offset="0.1333" style="stop-color:#C2912E"/>
				<stop  offset="1" style="stop-color:#FFFAB1"/>
			</linearGradient>
			<path style="fill:url(#SVGID_00000005226389840498329750000013970732306199709367_);" d="M815.8,172.1c0,3.3,0,5,0,8.3
				c-14.1,0.6-15.9,1.7-15.9,12.6c0,27.3,0.1,54.6,0.1,81.9c0.1,9.8-1.3,20.2-6.8,28.6c-11.2,18.1-35.4,20.1-54.4,18.7
				c-19.1-1.3-42.5-3.6-54.9-20.7c-6.1-9.2-8.4-20.4-8.2-31.4c0-26.1-0.1-52.2-0.1-78.3c0-10.4-1.8-11.5-16-12.2c0-3.2,0-4.7,0-7.9
				c23,0,46,0.1,69,0.1c0,3.2,0,4.8,0,8.1c-13.9,0.6-15.7,1.7-15.7,12.2c0,27.7,0.1,55.4,0.1,83.1c-0.2,16.9,6,36,25.6,37.1
				c20.3,1.1,26.2-18.2,25.9-35.1c0-28.2-0.1-56.4-0.1-84.6c0-10.7-1.8-11.8-15.7-12.6c0-3.2,0-4.9,0-8.1
				C771,172,793.4,172.1,815.8,172.1z"/>
			
				<linearGradient id="SVGID_00000157274101536694565430000001275970844751760050_" gradientUnits="userSpaceOnUse" x1="920.0672" y1="314.9397" x2="920.0672" y2="209.9626">
				<stop  offset="0" style="stop-color:#FFB22A"/>
				<stop  offset="0.1333" style="stop-color:#C2912E"/>
				<stop  offset="1" style="stop-color:#FFFAB1"/>
			</linearGradient>
			<path style="fill:url(#SVGID_00000157274101536694565430000001275970844751760050_);" d="M827.9,324.4c0-3.4,0-5,0-8.4
				c11.4-0.6,15.6,1.4,16.8-11.9c1.1-11.7,1.1-23.8,1.1-35.7c0-24.8-0.1-49.7-0.1-74.5c1.8-11.4-7.6-13.1-16.6-13.3c0-3.4,0-5,0-8.4
				c19.5,0.1,39,0.1,58.5,0.2c11.5,33.7,24.6,66.9,35.9,100.6c0.3,0,0.4,0,0.7,0c11.1-33.4,21.8-66.9,32.4-100.4
				c18.6,0.1,37.2,0.2,55.8,0.3c0,3.7,0,5.6,0,9.3c-10.8-0.2-17.2,2.5-16.6,14.2c0,40.1,0,80.2,0,120.3c-0.6,11.7,5.8,15,16.6,16.2
				c0,3.7,0,5.6,0,9.3c-22.8-2.7-45.6-5.2-68.4-7.6c0-3.6,0-5.4,0-8.9c9.4,0.8,18.7-0.5,16.6-12.4c0-39-0.1-78-0.1-117.1
				c-0.3,0-0.4,0-0.7,0c-14.1,45.3-27.7,90.8-41.9,136c-5.5-0.5-8.3-0.8-13.9-1.3c-14.4-45.6-29-91.3-45-136.4c-0.3,0-0.4,0-0.7,0
				c0,24.8,0.1,49.7,0.1,74.5c0.1,12,0.2,24.3,1.2,36c1,12.3,10.1,13.5,20.3,14.9c0,3.4,0,5.2,0,8.6
				C862.5,327.1,845.2,325.7,827.9,324.4z"/>
		</g>
	</g>
</g>
</svg>
